<svg width="24" height="24" viewBox="0 0 24 24" fill="none" xmlns="http://www.w3.org/2000/svg">
<path d="M2.5 12C2.5 6.76614 6.76614 2.5 12 2.5C17.2339 2.5 21.5 6.76614 21.5 12C21.5 17.2339 17.2339 21.5 12 21.5C6.76614 21.5 2.5 17.2339 2.5 12ZM11.6136 16.4136L15.141 12.8862C15.6397 12.4004 15.6397 11.5996 15.141 11.1138L11.6136 7.58645C11.1283 7.10118 10.3317 7.10118 9.84645 7.58645C9.36118 8.07171 9.36118 8.86829 9.84645 9.35355L12.4929 12L9.84645 14.6464C9.36118 15.1317 9.36118 15.9283 9.84645 16.4136C10.0952 16.6623 10.4145 16.78 10.73 16.78C11.0455 16.78 11.3648 16.6623 11.6136 16.4136Z" fill="#124232" stroke="#124232"/>
</svg>
