<svg width="21" height="21" viewBox="0 0 21 21" fill="none" xmlns="http://www.w3.org/2000/svg">
<path d="M1.6125 0.5H19.4C20.0125 0.5 20.5 0.9875 20.5 1.6V19.4C20.5 20 20.0125 20.5 19.4 20.5H14.3V12.75H16.9L17.2875 9.7375H14.3V7.8125C14.3 6.9375 14.55 6.3375 15.8 6.3375H17.4V3.6375C17.125 3.6 16.175 3.525 15.075 3.525C12.7625 3.525 11.1875 4.925 11.1875 7.5125V9.7375H8.575V12.75H11.1875V20.5H1.6125C1.3196 20.5 1.03851 20.3845 0.83023 20.1786C0.621952 19.9726 0.503291 19.6929 0.5 19.4V1.6C0.5 0.9875 1 0.5 1.6125 0.5Z" fill="#124232"/>
</svg>
