<svg width="35" height="35" viewBox="0 0 35 35" fill="none" xmlns="http://www.w3.org/2000/svg">
<path d="M17.5 27.3438C16.9021 27.3438 16.4062 26.8479 16.4062 26.25V21.875C16.4062 21.2771 16.9021 20.7812 17.5 20.7812C18.0979 20.7812 18.5938 21.2771 18.5938 21.875V26.25C18.5938 26.8479 18.0979 27.3438 17.5 27.3438Z" fill="#B6C4BF"/>
<path d="M25.6662 32.9H9.33291C6.67874 32.9 4.25791 30.8584 3.82041 28.2479L1.88083 16.625C1.55999 14.8167 2.44958 12.4979 3.89333 11.3459L13.9996 3.25211C15.9537 1.67711 19.0308 1.69169 20.9996 3.26669L31.1058 11.3459C32.535 12.4979 33.41 14.8167 33.1183 16.625L31.1787 28.2334C30.7412 30.8146 28.2621 32.9 25.6662 32.9ZM17.485 4.27294C16.7121 4.27294 15.9392 4.50628 15.3704 4.95836L5.26416 13.0667C4.44749 13.7229 3.86416 15.2396 4.03916 16.275L5.97874 27.8834C6.24124 29.4146 7.77249 30.7125 9.33291 30.7125H25.6662C27.2267 30.7125 28.7579 29.4146 29.0204 27.8688L30.96 16.2604C31.1204 15.2396 30.5371 13.6938 29.735 13.0521L19.6287 4.97294C19.0454 4.50628 18.2579 4.27294 17.485 4.27294Z" fill="#B6C4BF"/>
</svg>
