<svg width="35" height="35" viewBox="0 0 35 35" fill="none" xmlns="http://www.w3.org/2000/svg">
<path d="M30.3771 11.6812L20.825 4.03957C18.9584 2.55207 16.0417 2.53749 14.1896 4.02499L4.63753 11.6812C3.26669 12.775 2.43544 14.9625 2.72711 16.6833L4.56461 27.6792C4.98753 30.1437 7.27711 32.0833 9.77086 32.0833H25.2292C27.6938 32.0833 30.0271 30.1 30.45 27.6646L32.2875 16.6687C32.55 14.9625 31.7188 12.775 30.3771 11.6812ZM18.5938 26.25C18.5938 26.8479 18.0979 27.3437 17.5 27.3437C16.9021 27.3437 16.4063 26.8479 16.4063 26.25V21.875C16.4063 21.2771 16.9021 20.7812 17.5 20.7812C18.0979 20.7812 18.5938 21.2771 18.5938 21.875V26.25Z" fill="#124232"/>
</svg>
