<svg width="21" height="21" viewBox="0 0 21 21" fill="none" xmlns="http://www.w3.org/2000/svg">
<path d="M11.5709 0.0844115C12.331 0.0814946 13.0911 0.0891344 13.8511 0.107328L14.0532 0.11462C14.2865 0.122953 14.5167 0.13337 14.7948 0.14587C15.9032 0.197953 16.6594 0.372953 17.3229 0.630245C18.0104 0.894828 18.5896 1.25316 19.1688 1.83233C19.6983 2.35275 20.1082 2.98227 20.3698 3.67712C20.6271 4.34066 20.8021 5.09795 20.8542 6.20629C20.8667 6.48337 20.8771 6.71462 20.8854 6.94795L20.8917 7.15004C20.9102 7.90961 20.9182 8.66941 20.9157 9.4292L20.9167 10.2063V11.5709C20.9193 12.331 20.9113 13.0912 20.8927 13.8511L20.8865 14.0532C20.8782 14.2865 20.8677 14.5167 20.8552 14.7948C20.8032 15.9032 20.6261 16.6594 20.3698 17.323C20.109 18.0185 19.6991 18.6486 19.1688 19.1688C18.6479 19.6983 18.0181 20.1081 17.3229 20.3698C16.6594 20.6271 15.9032 20.8021 14.7948 20.8542C14.5167 20.8667 14.2865 20.8771 14.0532 20.8855L13.8511 20.8917C13.0911 20.9102 12.331 20.9182 11.5709 20.9157L10.7938 20.9167H9.43024C8.67009 20.9193 7.90995 20.9113 7.15003 20.8927L6.94795 20.8865C6.70067 20.8775 6.45344 20.8671 6.20628 20.8552C5.09795 20.8032 4.3417 20.6261 3.67711 20.3698C2.98199 20.1087 2.35236 19.6988 1.83232 19.1688C1.30216 18.6483 0.891931 18.0183 0.63024 17.323C0.372948 16.6594 0.197948 15.9032 0.145865 14.7948C0.134264 14.5477 0.123847 14.3004 0.114615 14.0532L0.109406 13.8511C0.0902019 13.0912 0.0815204 12.331 0.0833647 11.5709V9.4292C0.0804575 8.66941 0.0880972 7.90962 0.106281 7.15004L0.113573 6.94795C0.121906 6.71462 0.132323 6.48337 0.144823 6.20629C0.196906 5.09691 0.371906 4.3417 0.629198 3.67712C0.891044 2.98193 1.30208 2.35258 1.83336 1.83337C2.35305 1.3029 2.98228 0.8923 3.67711 0.630245C4.3417 0.372953 5.09691 0.197953 6.20628 0.14587L6.94795 0.11462L7.15003 0.109412C7.9096 0.0902167 8.66939 0.0815352 9.4292 0.08337L11.5709 0.0844115ZM10.5 5.29275C9.80993 5.28298 9.12478 5.41048 8.48438 5.66782C7.84399 5.92515 7.26112 6.3072 6.76966 6.79176C6.2782 7.27632 5.88795 7.85372 5.62158 8.49042C5.35521 9.12711 5.21804 9.81039 5.21804 10.5006C5.21804 11.1907 5.35521 11.874 5.62158 12.5107C5.88795 13.1474 6.2782 13.7248 6.76966 14.2094C7.26112 14.6939 7.84399 15.076 8.48438 15.3333C9.12478 15.5906 9.80993 15.7181 10.5 15.7084C11.8814 15.7084 13.2061 15.1596 14.1829 14.1829C15.1596 13.2061 15.7084 11.8814 15.7084 10.5C15.7084 9.1187 15.1596 7.79394 14.1829 6.81719C13.2061 5.84044 11.8814 5.29275 10.5 5.29275ZM10.5 7.37608C10.9151 7.36843 11.3276 7.44358 11.7134 7.59713C12.0991 7.75068 12.4504 7.97956 12.7467 8.2704C13.043 8.56123 13.2783 8.9082 13.439 9.29102C13.5997 9.67384 13.6825 10.0848 13.6826 10.5C13.6827 10.9152 13.6 11.3262 13.4394 11.7091C13.2789 12.092 13.0436 12.439 12.7474 12.73C12.4512 13.0209 12.1 13.2499 11.7143 13.4036C11.3286 13.5573 10.9162 13.6325 10.5011 13.625C9.67227 13.625 8.87741 13.2958 8.29136 12.7097C7.70531 12.1237 7.37607 11.3288 7.37607 10.5C7.37607 9.67124 7.70531 8.87638 8.29136 8.29033C8.87741 7.70428 9.67227 7.37504 10.5011 7.37504L10.5 7.37608ZM15.9688 3.73025C15.6327 3.7437 15.3149 3.88665 15.0819 4.12917C14.8489 4.3717 14.7188 4.69497 14.7188 5.03129C14.7188 5.36761 14.8489 5.69088 15.0819 5.9334C15.3149 6.17592 15.6327 6.31888 15.9688 6.33233C16.3141 6.33233 16.6453 6.19515 16.8895 5.95096C17.1337 5.70677 17.2709 5.37558 17.2709 5.03025C17.2709 4.68491 17.1337 4.35372 16.8895 4.10953C16.6453 3.86535 16.3141 3.72816 15.9688 3.72816V3.73025Z" fill="#124232"/>
</svg>
