<svg width="24" height="24" viewBox="0 0 24 24" fill="none" xmlns="http://www.w3.org/2000/svg">
<path d="M7.5 18.4299V17.9299H7C5.61362 17.9299 4.49716 17.47 3.72855 16.7014C2.95994 15.9328 2.5 14.8163 2.5 13.4299V7.42993C2.5 6.04356 2.95994 4.9271 3.72855 4.15849C4.49716 3.38987 5.61362 2.92993 7 2.92993H17C18.3864 2.92993 19.5028 3.38987 20.2714 4.15849C21.0401 4.9271 21.5 6.04356 21.5 7.42993V13.4299C21.5 14.8163 21.0401 15.9328 20.2714 16.7014C19.5028 17.47 18.3864 17.9299 17 17.9299H13H12.8489L12.7231 18.0136L8.27308 20.9736L8.27306 20.9736L8.26833 20.9768C7.94792 21.1953 7.5 20.9676 7.5 20.5599V18.4299ZM13.5374 10.866L13.5374 10.866L13.5404 10.8639L13.55 10.8574C13.8726 10.639 14.91 9.93676 14.91 8.52993C14.91 6.92379 13.6061 5.61993 12 5.61993C10.3939 5.61993 9.09 6.92379 9.09 8.52993C9.09 9.21607 9.65386 9.77993 10.34 9.77993C11.0261 9.77993 11.59 9.21607 11.59 8.52993C11.59 8.30607 11.7761 8.11993 12 8.11993C12.2239 8.11993 12.41 8.30607 12.41 8.52993C12.41 8.55587 12.4071 8.56527 12.4068 8.56619C12.4066 8.56702 12.4062 8.56799 12.4054 8.56969C12.4045 8.57149 12.4023 8.57556 12.3975 8.58216C12.374 8.61498 12.3112 8.68003 12.1401 8.79564L12.1401 8.79562L12.1367 8.79791C12.1301 8.80247 12.1231 8.80725 12.1158 8.81224C11.7762 9.04501 10.75 9.74839 10.75 11.1599V11.3699C10.75 12.0024 11.2291 12.5309 11.8414 12.6098C11.2183 12.6879 10.75 13.2205 10.75 13.8499C10.75 14.5317 11.2995 15.0999 12 15.0999C12.7005 15.0999 13.25 14.5317 13.25 13.8499C13.25 13.2205 12.7817 12.6879 12.1586 12.6098C12.7709 12.5309 13.25 12.0024 13.25 11.3699V11.1599C13.25 11.1258 13.2536 11.1116 13.2548 11.1076C13.2554 11.1054 13.2568 11.1004 13.2653 11.0885C13.2896 11.0545 13.3546 10.9878 13.5374 10.866Z" fill="#124232" stroke="#124232"/>
</svg>
