<svg width="24" height="24" viewBox="0 0 24 24" fill="none" xmlns="http://www.w3.org/2000/svg">
<path d="M5.02935 16.9494L5.02935 16.9494L5.02707 16.9477C4.7836 16.768 4.53374 16.4517 4.34377 16.0706C4.15399 15.69 4.05005 15.2969 4.05005 14.99V6.88997C4.05005 6.44637 4.2217 5.95136 4.52346 5.51609C4.82504 5.08107 5.22903 4.74549 5.64603 4.58797C5.64621 4.58791 5.64639 4.58784 5.64658 4.58777L11.1429 2.52914C11.1433 2.529 11.1437 2.52885 11.1441 2.52871C11.3569 2.45052 11.6687 2.40247 12.005 2.40247C12.3414 2.40247 12.6532 2.45052 12.866 2.52871C12.8664 2.52885 12.8668 2.529 12.8672 2.52914L18.3621 4.58721C18.3625 4.58736 18.3629 4.58752 18.3633 4.58767C18.7751 4.74491 19.1765 5.08005 19.4757 5.5147C19.7751 5.94978 19.944 6.44363 19.9401 6.88554L19.9401 6.88554V6.88997V14.99C19.9401 15.2965 19.8363 15.6869 19.6466 16.0664C19.4571 16.4453 19.2067 16.7637 18.9599 16.95C18.9596 16.9503 18.9594 16.9505 18.9591 16.9507L13.4607 21.0594L13.4594 21.0605C13.0761 21.3489 12.547 21.5075 11.995 21.5075C11.4431 21.5075 10.914 21.3489 10.5307 21.0605L10.5293 21.0594L5.02935 16.9494ZM14.0765 8.29641L10.66 11.7129L9.9336 10.9864C9.44834 10.5012 8.65176 10.5012 8.1665 10.9864C7.68164 11.4713 7.68123 12.2669 8.16528 12.7523C8.16568 12.7527 8.16609 12.7531 8.1665 12.7535L9.76431 14.3713L9.7643 14.3713L9.7665 14.3735C10.0152 14.6222 10.3346 14.74 10.65 14.74C10.9655 14.74 11.2849 14.6222 11.5336 14.3735L15.831 10.0761C16.3299 9.59015 16.3287 8.78152 15.8436 8.29641C15.3583 7.81115 14.5618 7.81115 14.0765 8.29641Z" fill="#124232" stroke="#124232"/>
</svg>
