<svg width="35" height="35" viewBox="0 0 35 35" fill="none" xmlns="http://www.w3.org/2000/svg">
<path d="M28.9184 12.6875L22.3122 6.08123C20.9268 4.69581 19.0164 3.95206 17.0622 4.05415L9.77053 4.40415C6.85387 4.5354 4.53512 6.85415 4.38928 9.75623L4.03928 17.0479C3.95178 19.0021 4.68095 20.9125 6.06637 22.2979L12.6726 28.9041C15.3851 31.6166 19.7893 31.6166 22.5164 28.9041L28.9184 22.5021C31.6455 19.8041 31.6455 15.4 28.9184 12.6875ZM13.8539 18.0541C11.5497 18.0541 9.65387 16.1729 9.65387 13.8541C9.65387 11.5354 11.5497 9.65415 13.8539 9.65415C16.158 9.65415 18.0539 11.5354 18.0539 13.8541C18.0539 16.1729 16.158 18.0541 13.8539 18.0541ZM25.5643 19.7312L19.7309 25.5646C19.5122 25.7833 19.2351 25.8854 18.958 25.8854C18.6809 25.8854 18.4039 25.7833 18.1851 25.5646C17.7622 25.1416 17.7622 24.4416 18.1851 24.0187L24.0184 18.1854C24.4414 17.7625 25.1414 17.7625 25.5643 18.1854C25.9872 18.6083 25.9872 19.3083 25.5643 19.7312Z" fill="#124232"/>
</svg>
