<svg width="35" height="35" viewBox="0 0 35 35" fill="none" xmlns="http://www.w3.org/2000/svg">
<path d="M17.6021 32.0542C15.5458 32.0542 13.475 31.2667 11.9146 29.7063L5.30834 23.1C3.70417 21.4958 2.85834 19.2792 2.96042 17.0188L3.31042 9.7125C3.47084 6.22709 6.22709 3.47084 9.72709 3.29584L17.0188 2.94584C19.2938 2.84375 21.4958 3.68959 23.1 5.29375L29.7063 11.9C32.8417 15.0354 32.8417 20.1542 29.7063 23.2896L23.3042 29.6917C21.7292 31.2667 19.6729 32.0542 17.6021 32.0542ZM6.85417 21.5396L13.4604 28.1458C15.75 30.4354 19.4688 30.4354 21.7583 28.1458L28.1604 21.7438C30.45 19.4542 30.45 15.7354 28.1604 13.4458L21.5396 6.85417C20.3729 5.6875 18.7833 5.075 17.1063 5.14792L9.81459 5.49792C7.45209 5.6 5.60001 7.45209 5.48334 9.81459L5.13334 17.1208C5.06042 18.7542 5.68751 20.3729 6.85417 21.5396Z" fill="#B6C4BF"/>
<path d="M13.8538 18.5938C11.2434 18.5938 9.11426 16.4646 9.11426 13.8542C9.11426 11.2438 11.2434 9.11459 13.8538 9.11459C16.4643 9.11459 18.5934 11.2438 18.5934 13.8542C18.5934 16.4646 16.4643 18.5938 13.8538 18.5938ZM13.8538 11.3021C12.4538 11.3021 11.3018 12.4542 11.3018 13.8542C11.3018 15.2542 12.4538 16.4063 13.8538 16.4063C15.2538 16.4063 16.4059 15.2542 16.4059 13.8542C16.4059 12.4542 15.2538 11.3021 13.8538 11.3021Z" fill="#B6C4BF"/>
<path d="M18.9583 25.8854C18.6812 25.8854 18.4041 25.7833 18.1854 25.5646C17.7624 25.1417 17.7624 24.4417 18.1854 24.0187L24.0187 18.1854C24.4416 17.7625 25.1416 17.7625 25.5645 18.1854C25.9874 18.6083 25.9874 19.3083 25.5645 19.7312L19.7312 25.5646C19.5124 25.7833 19.2354 25.8854 18.9583 25.8854Z" fill="#B6C4BF"/>
</svg>
