<svg width="35" height="35" viewBox="0 0 35 35" fill="none" xmlns="http://www.w3.org/2000/svg">
<path d="M17.7327 16.9459C17.689 16.9459 17.6598 16.9459 17.6161 16.9459C17.5432 16.9313 17.4411 16.9313 17.3536 16.9459C13.1244 16.8146 9.93066 13.4896 9.93066 9.39169C9.93066 5.22085 13.3286 1.82294 17.4994 1.82294C21.6702 1.82294 25.0682 5.22085 25.0682 9.39169C25.0536 13.4896 21.8452 16.8146 17.7765 16.9459C17.7619 16.9459 17.7473 16.9459 17.7327 16.9459ZM17.4994 4.01044C14.539 4.01044 12.1182 6.43127 12.1182 9.39169C12.1182 12.3084 14.3932 14.6563 17.2952 14.7584C17.3682 14.7438 17.5723 14.7438 17.7619 14.7584C20.6202 14.6271 22.8661 12.2792 22.8807 9.39169C22.8807 6.43127 20.4598 4.01044 17.4994 4.01044Z" fill="#B6C4BF"/>
<path d="M17.7476 32.8854C14.8893 32.8854 12.0163 32.1562 9.84342 30.6979C7.81634 29.3562 6.70801 27.5187 6.70801 25.5208C6.70801 23.5229 7.81634 21.6708 9.84342 20.3146C14.2184 17.4125 21.3059 17.4125 25.6518 20.3146C27.6643 21.6562 28.7872 23.4937 28.7872 25.4916C28.7872 27.4896 27.6788 29.3416 25.6518 30.6979C23.4643 32.1562 20.6059 32.8854 17.7476 32.8854ZM11.0538 22.1521C9.65384 23.0854 8.89551 24.2812 8.89551 25.5354C8.89551 26.775 9.66842 27.9708 11.0538 28.8896C14.6851 31.325 20.8101 31.325 24.4413 28.8896C25.8413 27.9562 26.5997 26.7604 26.5997 25.5062C26.5997 24.2666 25.8268 23.0708 24.4413 22.1521C20.8101 19.7312 14.6851 19.7312 11.0538 22.1521Z" fill="#B6C4BF"/>
</svg>
