<svg width="35" height="35" viewBox="0 0 35 35" fill="none" xmlns="http://www.w3.org/2000/svg">
<path d="M17.5003 2.91666C13.6795 2.91666 10.5732 6.02291 10.5732 9.84374C10.5732 13.5917 13.5045 16.625 17.3253 16.7562C17.442 16.7417 17.5587 16.7417 17.6462 16.7562C17.6753 16.7562 17.6899 16.7562 17.7191 16.7562C17.7337 16.7562 17.7337 16.7562 17.7482 16.7562C21.4816 16.625 24.4128 13.5917 24.4274 9.84374C24.4274 6.02291 21.3212 2.91666 17.5003 2.91666Z" fill="#124232"/>
<path d="M24.9084 20.6354C20.8396 17.9229 14.2042 17.9229 10.1063 20.6354C8.25423 21.875 7.2334 23.5521 7.2334 25.3458C7.2334 27.1396 8.25423 28.8021 10.0917 30.0271C12.1334 31.3979 14.8167 32.0833 17.5001 32.0833C20.1834 32.0833 22.8667 31.3979 24.9084 30.0271C26.7459 28.7875 27.7667 27.125 27.7667 25.3167C27.7522 23.5229 26.7459 21.8604 24.9084 20.6354Z" fill="#124232"/>
</svg>
