<svg width="24" height="24" viewBox="0 0 24 24" fill="none" xmlns="http://www.w3.org/2000/svg">
<path d="M18 2.5H6C4.61177 2.5 3.5 3.6105 3.5 4.97V15.88C3.5 17.2417 4.61396 18.36 6 18.36H6.76C7.67844 18.36 8.57625 18.7197 9.23249 19.3754C9.23284 19.3757 9.2332 19.3761 9.23355 19.3764L10.9413 21.0642C11.5265 21.6419 12.4732 21.6419 13.0585 21.0644L18 2.5ZM18 2.5C19.3882 2.5 20.5 3.6105 20.5 4.97V15.88C20.5 17.2417 19.386 18.36 18 18.36H17.24C16.3216 18.36 15.4238 18.7197 14.7676 19.3753C14.7672 19.3757 14.7668 19.3761 14.7664 19.3764L13.0587 21.0642L18 2.5ZM12.07 9.95H12.0796L12.0892 9.94963C13.3933 9.89947 14.45 8.83303 14.45 7.5C14.45 6.15553 13.3578 5.05 12 5.05C10.6413 5.05 9.55254 6.15542 9.54002 7.49533H9.54V7.5C9.54 8.83124 10.5849 9.8995 11.901 9.94964L11.9105 9.95H11.92H11.9203H11.9206H11.9209H11.9212H11.9215H11.9218H11.9221H11.9224H11.9226H11.9229H11.9232H11.9235H11.9238H11.9241H11.9244H11.9247H11.925H11.9253H11.9256H11.9259H11.9262H11.9265H11.9268H11.9271H11.9274H11.9277H11.928H11.9283H11.9286H11.9289H11.9292H11.9295H11.9298H11.9301H11.9304H11.9307H11.931H11.9313H11.9316H11.9319H11.9322H11.9325H11.9328H11.9331H11.9334H11.9337H11.934H11.9343H11.9346H11.9349H11.9352H11.9355H11.9358H11.9361H11.9364H11.9367H11.937H11.9373H11.9376H11.9379H11.9382H11.9386H11.9389H11.9392H11.9395H11.9398H11.9401H11.9404H11.9407H11.941H11.9413H11.9416H11.9419H11.9422H11.9425H11.9428H11.9431H11.9434H11.9437H11.9441H11.9444H11.9447H11.945H11.9453H11.9456H11.9459H11.9462H11.9465H11.9468H11.9471H11.9474H11.9477H11.9481H11.9484H11.9487H11.949H11.9493H11.9496H11.9499H11.9502H11.9505H11.9508H11.9511H11.9515H11.9518H11.9521H11.9524H11.9527H11.953H11.9533H11.9536H11.9539H11.9542H11.9546H11.9549H11.9552H11.9555H11.9558H11.9561H11.9564H11.9567H11.957H11.9574H11.9577H11.958H11.9583H11.9586H11.9589H11.9592H11.9595H11.9598H11.9602H11.9605H11.9608H11.9611H11.9614H11.9617H11.962H11.9623H11.9626H11.963H11.9633H11.9636H11.9639H11.9642H11.9645H11.9648H11.9651H11.9655H11.9658H11.9661H11.9664H11.9667H11.967H11.9673H11.9676H11.968H11.9683H11.9686H11.9689H11.9692H11.9695H11.9698H11.9701H11.9705H11.9708H11.9711H11.9714H11.9717H11.972H11.9723H11.9726H11.973H11.9733H11.9736H11.9739H11.9742H11.9745H11.9748H11.9751H11.9755H11.9758H11.9761H11.9764H11.9767H11.977H11.9773H11.9776H11.978H11.9783H11.9786H11.9789H11.9792H11.9795H11.9798H11.9801H11.9804H11.9808H11.9811H11.9814H11.9817H11.982H11.9823H11.9826H11.9829H11.9833H11.9836H11.9839H11.9842H11.9845H11.9848H11.9851H11.9854H11.9857H11.9861H11.9864H11.9867H11.987H11.9873H11.9876H11.9879H11.9882H11.9885H11.9889H11.9892H11.9895H11.9898H11.9901H11.9904H11.9907H11.991H11.9913H11.9916H11.992H11.9923H11.9926H11.9929H11.9932H11.9935H11.9938H11.9941H11.9944H11.9947H11.9951H11.9954H11.9957H11.996H11.9963H11.9966H11.9969H11.9972H11.9975H11.9978H11.9981H11.9984H11.9987H11.9991H11.9994H11.9997H12H12.0003H12.0006H12.0009H12.0012H12.0015H12.0018H12.0021H12.0024H12.0027H12.003H12.0034H12.0037H12.004H12.0043H12.0046H12.0049H12.0052H12.0055H12.0058H12.0061H12.0064H12.0067H12.007H12.0073H12.0076H12.0079H12.0082H12.0085H12.0088H12.0091H12.0094H12.0097H12.01H12.0103H12.0106H12.0109H12.0113H12.0116H12.0119H12.0122H12.0125H12.0128H12.0131H12.0134H12.0137H12.014H12.0143H12.0146H12.0149H12.0152H12.0155H12.0158H12.0161H12.0164H12.0167H12.017H12.0173H12.0175H12.0178H12.0181H12.0184H12.0187H12.019H12.0193H12.0196H12.0199H12.0202H12.0205H12.0208H12.0211H12.0214H12.0217H12.022H12.0223H12.0226H12.0229H12.0232H12.0235H12.0238H12.0241H12.0243H12.0246H12.0249H12.0252H12.0255H12.0258H12.0261H12.0264H12.0267H12.027H12.0273H12.0276H12.0278H12.0281H12.0284H12.0287H12.029H12.0293H12.0296H12.0299H12.0302H12.0304H12.0307H12.031H12.0313H12.0316H12.0319H12.0322H12.0325H12.0327H12.033H12.0333H12.0336H12.0339H12.0342H12.0345H12.0347H12.035H12.0353H12.0356H12.0359H12.0362H12.0364H12.0367H12.037H12.0373H12.0376H12.0378H12.0381H12.0384H12.0387H12.039H12.0392H12.0395H12.0398H12.0401H12.0404H12.0406H12.0409H12.0412H12.0415H12.0417H12.042H12.0423H12.0426H12.0429H12.0431H12.0434H12.0437H12.0439H12.0442H12.0445H12.0448H12.045H12.0453H12.0456H12.0459H12.0461H12.0464H12.0467H12.0469H12.0472H12.0475H12.0478H12.048H12.0483H12.0486H12.0488H12.0491H12.0494H12.0496H12.0499H12.0502H12.0504H12.0507H12.051H12.0512H12.0515H12.0518H12.052H12.0523H12.0525H12.0528H12.0531H12.0533H12.0536H12.0539H12.0541H12.0544H12.0546H12.0549H12.0552H12.0554H12.0557H12.0559H12.0562H12.0565H12.0567H12.057H12.0572H12.0575H12.0577H12.058H12.0582H12.0585H12.0588H12.059H12.0593H12.0595H12.0598H12.06H12.0603H12.0605H12.0608H12.061H12.0613H12.0615H12.0618H12.062H12.0623H12.0625H12.0628H12.063H12.0633H12.0635H12.0638H12.064H12.0642H12.0645H12.0647H12.065H12.0652H12.0655H12.0657H12.066H12.0662H12.0664H12.0667H12.0669H12.0672H12.0674H12.0676H12.0679H12.0681H12.0683H12.0686H12.0688H12.0691H12.0693H12.0695H12.0698H12.07ZM15.028 15.1056L15.0281 15.1055C15.7967 14.5912 16.2475 13.8651 16.2475 13.075C16.2475 12.2853 15.7971 11.5595 15.0293 11.0453C14.179 10.4728 13.0807 10.2025 12.0075 10.2025C10.934 10.2025 9.83216 10.4729 8.97328 11.0436L8.97193 11.0445C8.20246 11.5594 7.7525 12.2883 7.7525 13.0787C7.7525 13.8695 8.20274 14.5962 8.97311 15.1063C9.82752 15.6774 10.9271 15.9475 12 15.9475C13.0734 15.9475 14.1734 15.6772 15.028 15.1056Z" fill="#124232" stroke="#124232"/>
</svg>
